<svg width="128" height="54" viewBox="0 0 128 54" fill="none" xmlns="http://www.w3.org/2000/svg">
<path fill-rule="evenodd" clip-rule="evenodd" d="M128 27.9007C128 18.6724 123.591 11.3906 115.164 11.3906C106.702 11.3906 101.582 18.6724 101.582 27.8286C101.582 38.6791 107.626 44.1584 116.302 44.1584C120.533 44.1584 123.733 43.1851 126.151 41.8153V34.6056C123.733 35.8313 120.96 36.5883 117.44 36.5883C113.991 36.5883 110.933 35.3627 110.542 31.109H127.929C127.929 30.6403 128 28.7658 128 27.9007ZM110.435 24.4761C110.435 20.4027 112.889 18.7084 115.129 18.7084C117.298 18.7084 119.609 20.4027 119.609 24.4761H110.435Z" fill="#635BFF"/>
<path fill-rule="evenodd" clip-rule="evenodd" d="M87.8579 11.3906C84.3734 11.3906 82.1334 13.0488 80.889 14.2024L80.4267 11.9674H72.6045V53.9995L81.4934 52.089L81.5289 41.8874C82.809 42.8246 84.6934 44.1584 87.8223 44.1584C94.1868 44.1584 99.9823 38.9675 99.9823 27.5402C99.9468 17.0862 94.0801 11.3906 87.8579 11.3906ZM85.7245 36.2278C83.6267 36.2278 82.3823 35.4708 81.5289 34.5335L81.4934 21.1597C82.4178 20.1143 83.6978 19.3933 85.7245 19.3933C88.9601 19.3933 91.2001 23.0702 91.2001 27.7925C91.2001 32.623 88.9956 36.2278 85.7245 36.2278Z" fill="#635BFF"/>
<path fill-rule="evenodd" clip-rule="evenodd" d="M60.374 9.26438L69.2985 7.31777V0L60.374 1.91055V9.26438Z" fill="#635BFF"/>
<path d="M69.2985 12.0039H60.374V43.546H69.2985V12.0039Z" fill="#635BFF"/>
<path fill-rule="evenodd" clip-rule="evenodd" d="M50.8085 14.671L50.2396 12.0035H42.5596V43.5456H51.4485V22.1691C53.5463 19.3933 57.1018 19.898 58.2041 20.2945V12.0035C57.0663 11.5709 52.9063 10.7778 50.8085 14.671Z" fill="#635BFF"/>
<path fill-rule="evenodd" clip-rule="evenodd" d="M33.0314 4.18164L24.3559 6.05615L24.3203 34.9307C24.3203 40.2658 28.267 44.1951 33.5292 44.1951C36.4448 44.1951 38.5781 43.6544 39.7515 43.0055V35.6877C38.6137 36.1564 32.9959 37.8146 32.9959 32.4794V19.6823H39.7515V12.0041H32.9959L33.0314 4.18164Z" fill="#635BFF"/>
<path fill-rule="evenodd" clip-rule="evenodd" d="M8.99558 21.1597C8.99558 19.7538 10.1334 19.2131 12.0178 19.2131C14.72 19.2131 18.1334 20.0422 20.8356 21.5202V13.0488C17.8845 11.8593 14.9689 11.3906 12.0178 11.3906C4.80001 11.3906 0 15.2117 0 21.5923C0 31.5415 13.5111 29.9554 13.5111 34.2452C13.5111 35.9034 12.0889 36.4441 10.0978 36.4441C7.14668 36.4441 3.37778 35.2185 0.391111 33.5602V42.1397C3.69779 43.5816 7.04002 44.1945 10.0978 44.1945C17.4934 44.1945 22.5778 40.4815 22.5778 34.0289C22.5423 23.2865 8.99558 25.1971 8.99558 21.1597Z" fill="#635BFF"/>
</svg>
