<svg width="130" height="51" viewBox="0 0 130 51" fill="none" xmlns="http://www.w3.org/2000/svg">
<path d="M24.9692 50.2498L3.60508 36.3271C3.60508 36.3271 0.925954 34.785 0.312638 31.9123C-0.548892 27.8788 2.2909 24.4207 2.2909 24.4207L30.0177 42.4971C32.1566 43.8924 32.7402 46.7473 31.3654 48.9007C29.953 51.1127 27.0508 51.6008 24.9682 50.2498H24.9692Z" fill="#38D200"/>
<path d="M4.73337 21.4371C4.73337 21.4371 1.46096 19.4591 1.46096 14.8839C1.46096 10.3246 4.73198 8.37081 4.73198 8.37081L16.4115 0.718799C17.4393 0.0667925 18.6825 -0.153268 19.8713 0.106352C21.0602 0.365972 22.0988 1.08433 22.762 2.10562C23.4252 3.1269 23.6594 4.36875 23.4138 5.56178C23.1683 6.75482 22.4628 7.80283 21.4503 8.4785L11.6065 14.8951L28.3784 25.83C28.3784 25.83 31.3975 27.5614 31.9922 30.4844C32.8225 34.5622 30.0186 37.922 30.0186 37.922L4.73337 21.4371ZM4.67144 50.9879C5.76767 50.9879 6.54817 50.6396 7.30958 50.1455L13.011 46.4276L7.30958 42.7107C6.54119 42.2151 5.73461 41.8683 4.67144 41.8683C4.06779 41.8596 3.46846 41.9712 2.90826 42.1965C2.34806 42.4218 1.83818 42.7562 1.40826 43.1805C0.978335 43.6048 0.636941 44.1104 0.403921 44.6679C0.170901 45.2254 0.0509033 45.8237 0.0509033 46.4281C0.0509033 47.0324 0.170901 47.6307 0.403921 48.1883C0.636941 48.7458 0.978335 49.2514 1.40826 49.6756C1.83818 50.0999 2.34806 50.4344 2.90826 50.6597C3.46846 50.8849 4.06779 50.9965 4.67144 50.9879Z" fill="#0473EA"/>
<path d="M26.7174 10.3357C25.6207 10.3357 24.8402 10.6839 24.0788 11.1776L18.3768 14.895L24.0788 18.6124C24.8472 19.1084 25.6542 19.4553 26.7174 19.4553C27.3155 19.4553 27.9078 19.3373 28.4605 19.1082C29.0131 18.879 29.5152 18.5431 29.9382 18.1197C30.3612 17.6963 30.6967 17.1937 30.9256 16.6404C31.1545 16.0872 31.2723 15.4943 31.2723 14.8955C31.2723 14.2967 31.1545 13.7037 30.9256 13.1505C30.6967 12.5973 30.3612 12.0946 29.9382 11.6712C29.5152 11.2478 29.0131 10.9119 28.4605 10.6828C27.9078 10.4536 27.3155 10.3357 26.7174 10.3357Z" fill="#38D200"/>
<path d="M50.4373 36.5142C51.6429 36.5142 52.7671 36.1869 53.6454 35.4298V37.1277C52.6642 37.8027 51.4995 38.089 50.2733 38.089C47.1858 38.089 45.0417 35.9408 45.0417 32.8518C45.0417 29.7829 47.2487 27.6352 50.3143 27.6352C51.52 27.6352 52.6437 27.9834 53.543 28.658V30.5195C52.7462 29.6608 51.6429 29.2104 50.4163 29.2104C48.2704 29.2104 46.7583 30.7041 46.7583 32.8514C46.7583 34.9996 48.2913 36.5142 50.4373 36.5142ZM57.14 37.9053H55.4844V24.6227L57.14 25.6469V29.5382C57.8962 28.3722 59.1019 27.6361 60.6345 27.6361C63.1688 27.6361 64.5174 29.4971 64.5174 31.9726V37.9053H62.8419V32.2588C62.8419 30.2948 61.9836 29.2519 60.2256 29.2519C58.3661 29.2519 57.1386 30.8472 57.1386 32.8523L57.14 37.9053ZM74.7967 36.1855C73.9593 37.372 72.6717 38.088 71.0981 38.088C68.1554 38.088 66.0505 35.8993 66.0505 32.9124C66.0505 29.8654 68.1554 27.6342 71.0981 27.6342C72.6717 27.6342 73.9593 28.3708 74.7967 29.5782V27.8184H76.4727V37.9039H74.7967V36.1855ZM67.767 32.8919C67.767 34.9786 69.2181 36.5128 71.2616 36.5128C73.3255 36.5128 74.7967 34.9786 74.7967 32.8919C74.7967 30.7642 73.3255 29.2095 71.2616 29.2095C69.2181 29.2109 67.767 30.7652 67.767 32.8933V32.8919ZM80.703 37.9053H79.0475V27.8198H80.703V29.9675C81.4998 28.4738 82.7875 27.6356 84.3815 27.6356V29.5382C82.3786 29.2519 80.703 30.602 80.703 33.0975V37.9053ZM101.343 33.5068H93.3936C93.639 35.3277 95.0696 36.5347 97.0721 36.5347C98.3597 36.5347 99.6064 36.1664 100.669 35.4093V37.0051C99.5859 37.7417 98.3597 38.0894 97.0721 38.0894C93.9045 38.0894 91.637 36.0438 91.637 32.953C91.637 29.9251 93.558 27.6342 96.6031 27.6342C99.5049 27.6342 101.406 29.782 101.406 32.6667C101.406 32.9479 101.385 33.229 101.343 33.5068ZM93.4141 32.1577H99.6474C99.4839 30.4388 98.4007 29.1708 96.6227 29.1708C94.7832 29.1699 93.6795 30.4589 93.4141 32.1567V32.1577ZM104.879 37.9053H103.223V27.8198H104.879V29.9675C105.676 28.4738 106.963 27.6356 108.557 27.6356V29.5382C106.555 29.2519 104.879 30.602 104.879 33.0975V37.9053ZM118.387 33.5068H110.438C110.682 35.3277 112.113 36.5347 114.116 36.5347C115.404 36.5347 116.65 36.1664 117.713 35.4093V37.0051C116.63 37.7417 115.404 38.0894 114.116 38.0894C110.948 38.0894 108.681 36.0438 108.681 32.953C108.681 29.9251 110.601 27.6342 113.647 27.6342C116.548 27.6342 118.449 29.782 118.449 32.6667C118.449 32.9479 118.429 33.2287 118.387 33.5068ZM110.458 32.1577H116.691C116.527 30.4388 115.444 29.1708 113.667 29.1708C111.828 29.1699 110.725 30.4589 110.458 32.1567V32.1577ZM128.324 36.1734C127.507 37.3808 126.199 38.117 124.626 38.117C121.683 38.117 119.578 35.9277 119.578 32.9409C119.578 29.8939 121.683 27.6627 124.626 27.6627C126.199 27.6627 127.507 28.4202 128.324 29.6472V24.625L130 25.6497V37.9048H128.324V36.1734ZM121.295 32.9208C121.295 35.0075 122.745 36.5422 124.789 36.5422C126.853 36.5422 128.324 35.0075 128.324 32.9208C128.324 30.7931 126.853 29.2384 124.789 29.2384C122.745 29.2384 121.295 30.7922 121.295 32.9208ZM87.2739 34.5529C87.2739 35.9646 88.1322 36.517 89.2154 36.517C90.0568 36.5252 90.8793 36.2674 91.5658 35.7804V37.3967C90.87 37.9081 89.9102 38.1128 89.0724 38.1128C86.9265 38.1128 85.6184 37.151 85.6184 34.4299V24.6203L87.2739 25.6446V34.5529ZM89.9498 27.6879C89.809 27.5964 89.6515 27.5336 89.4864 27.503C89.3213 27.4725 89.1519 27.4748 88.9877 27.5098C88.8235 27.5448 88.6678 27.6119 88.5295 27.7072C88.3912 27.8024 88.2729 27.924 88.1816 28.065C88.0902 28.206 88.0275 28.3636 87.997 28.5289C87.9665 28.6941 87.9688 28.8638 88.0037 29.0282C88.0387 29.1925 88.1057 29.3484 88.2009 29.4869C88.296 29.6253 88.4175 29.7437 88.5583 29.8351L88.5937 29.8575C88.7993 29.9893 89.0383 30.0594 89.2825 30.0594C89.5266 30.0594 89.7656 29.9893 89.9712 29.8575L91.6175 28.8006L89.9498 27.6879ZM48.4958 21.9701C49.6805 21.9701 50.5392 21.4587 50.5392 20.5379C50.5392 19.9855 50.2533 19.5561 49.4956 19.2489L47.1043 18.2876C45.8781 17.7557 45.2038 17.0602 45.2038 15.7506C45.2038 13.9912 46.6139 12.8864 48.6574 12.8864C49.8421 12.8864 50.9458 13.2136 51.7226 13.8071V15.5483C50.8033 14.7297 49.6786 14.2593 48.6788 14.2593C47.6156 14.2593 46.8593 14.7502 46.8593 15.5688C46.8593 16.1823 47.1457 16.5506 47.943 16.8574L50.3343 17.8191C51.6215 18.3716 52.2148 19.1487 52.2148 20.233C52.2148 22.1561 50.6613 23.3425 48.4753 23.3425C47.1462 23.3425 45.9405 22.9742 45.0622 22.3202V20.5174C46.1245 21.5197 47.3101 21.9701 48.4958 21.9701ZM55.3624 19.7808C55.3624 21.1925 56.2202 21.7449 57.3039 21.7449C58.1444 21.7524 58.966 21.4947 59.6519 21.0083V22.6246C58.9562 23.136 57.9959 23.3407 57.1581 23.3407C55.0122 23.3407 53.705 22.3794 53.705 19.6582V10.8655L55.3601 9.83984L55.3624 19.7808ZM68.9112 21.4377C68.0735 22.6246 66.7858 23.3407 65.2123 23.3407C62.2696 23.3407 60.1646 21.1519 60.1646 18.1646C60.1646 15.1176 62.2696 12.8864 65.2123 12.8864C66.7858 12.8864 68.0735 13.623 68.9112 14.8304V13.0719H70.5873V23.1565H68.9112V21.4377ZM61.8812 18.1445C61.8812 20.2312 63.3323 21.7654 65.3757 21.7654C67.4401 21.7654 68.9112 20.2312 68.9112 18.1445C68.9112 16.0168 67.4401 14.4616 65.3757 14.4616C63.3323 14.4616 61.8812 16.0168 61.8812 18.1445ZM74.8172 23.1565H73.1616V13.0719H74.8172V14.7903C75.5734 13.6244 76.7791 12.8878 78.3117 12.8878C80.846 12.8878 82.1946 14.7497 82.1946 17.2252V23.1579H80.5191V17.5119C80.5191 15.5479 79.6608 14.5045 77.9033 14.5045C76.0433 14.5045 74.8158 16.1003 74.8158 18.1054L74.8172 23.1565ZM92.4743 21.3971C91.657 22.6045 90.3489 23.3411 88.7753 23.3411C85.8326 23.3411 83.7277 21.1519 83.7277 18.1646C83.7277 15.1176 85.8326 12.8864 88.7753 12.8864C90.3489 12.8864 91.657 13.6435 92.4743 14.8709V10.8641L94.1503 9.83984V23.1565H92.4743V21.3971ZM85.4442 18.1445C85.4442 20.2312 86.8953 21.7654 88.9388 21.7654C91.0032 21.7654 92.4743 20.2312 92.4743 18.1445C92.4743 16.0168 91.0032 14.4616 88.9388 14.4616C86.8967 14.4616 85.4442 16.0168 85.4442 18.1445ZM123.129 21.3971C122.312 22.6045 121.004 23.3411 119.43 23.3411C116.487 23.3411 114.382 21.1519 114.382 18.1646C114.382 15.1176 116.487 12.8864 119.43 12.8864C121.004 12.8864 122.312 13.6435 123.129 14.8709V10.8641L124.805 9.83984V23.1565H123.129V21.3971ZM116.099 18.1445C116.099 20.2312 117.55 21.7654 119.594 21.7654C121.658 21.7654 123.129 20.2312 123.129 18.1445C123.129 16.0168 121.658 14.4616 119.594 14.4616C117.551 14.4616 116.099 16.0168 116.099 18.1445ZM104.695 21.4377C103.858 22.6246 102.57 23.3407 100.996 23.3407C98.0538 23.3407 95.9489 21.1519 95.9489 18.1646C95.9489 15.1176 98.0538 12.8864 100.996 12.8864C102.57 12.8864 103.858 13.623 104.695 14.8304V13.0719H106.371V23.1565H104.695V21.4377ZM97.6654 18.1445C97.6654 20.2312 99.1165 21.7654 101.16 21.7654C103.224 21.7654 104.695 20.2312 104.695 18.1445C104.695 16.0168 103.224 14.4616 101.16 14.4616C99.1151 14.4616 97.6654 16.0168 97.6654 18.1445ZM110.601 23.1565H108.946V13.0719H110.601V15.2201C111.398 13.7265 112.686 12.8878 114.28 12.8878V14.7903C112.277 14.5041 110.601 15.8541 110.601 18.3501V23.1565ZM57.6955 15.2201C57.8722 15.3354 58.0746 15.4053 58.2848 15.4233C58.4949 15.4414 58.7063 15.4072 58.9 15.3237C59.0937 15.2402 59.2639 15.1101 59.3952 14.9449C59.5266 14.7797 59.6151 14.5845 59.6528 14.3768C59.683 14.2108 59.6801 14.0404 59.6441 13.8756C59.6081 13.7108 59.5399 13.5547 59.4433 13.4164C59.347 13.2781 59.2243 13.1603 59.0824 13.0696L59.047 13.0477C58.8409 12.9166 58.6017 12.8474 58.3575 12.8482C58.1134 12.849 57.8746 12.9199 57.6694 13.0523L56.0242 14.1129L57.6955 15.2201Z" fill="#525355"/>
</svg>
