<svg width="105" height="58" viewBox="0 0 105 58" fill="none" xmlns="http://www.w3.org/2000/svg">
<path d="M18.9542 5.53261C22.2745 2.0401 26.6789 0 31.8533 0C41.9335 0 48.6168 7.36861 49.8954 18.4073C50.31 21.9921 50.3062 27.0461 50.302 32.8999C50.3012 33.5002 50.3012 34.109 50.3012 34.7255V56.655H36.439V40.4352C36.439 40.4352 36.4108 26.5534 36.326 23.959C35.954 12.6594 29.2726 5.55936 18.9528 5.55173C15.8393 8.84515 14.171 12.8719 13.925 19.029C13.8912 19.8877 13.8997 22.9317 13.9109 26.9435C13.9167 29.0221 13.9233 31.3605 13.925 33.7895C13.9353 44.3617 13.925 56.6574 13.925 56.6574H0.0627599V31.6953C0.0627599 30.84 0.0471795 29.9774 0.0315633 29.1114C0.000123952 27.3694 -0.0315645 25.614 0.0627599 23.8758C0.21938 20.9781 0.720049 18.1296 2.07057 15.4834C5.16188 9.42105 11.496 5.51774 18.2487 5.51774C18.4846 5.51774 18.7206 5.52356 18.9542 5.53261Z" fill="#820AD1"/>
<path d="M104.937 34.1245C105.032 32.3863 105 30.6307 104.969 28.8889C104.953 28.0229 104.937 27.1603 104.937 26.305V1.34288H91.0752C91.0752 1.34288 91.0649 13.6386 91.0752 24.2106C91.0768 26.6396 91.0834 28.9779 91.0892 31.0565C91.1004 35.0684 91.1089 38.1124 91.0752 38.9711C90.8292 45.1284 89.1608 49.1551 86.0474 52.4486C75.7278 52.4413 69.0465 45.3406 68.6743 34.0413C68.5896 31.4469 68.5538 25.0087 68.5538 17.552V1.33228L54.7019 1.34495V23.2745C54.7019 23.891 54.7011 24.4996 54.7011 25.1001C54.6967 30.9539 54.6931 36.0078 55.1077 39.5927C56.3836 50.6314 63.0669 58 73.1471 58C78.3216 58 82.726 55.9598 86.0464 52.4673C86.2797 52.4764 86.5156 52.4818 86.7515 52.4818C93.5041 52.4818 99.8383 48.5786 102.93 42.5163C104.28 39.8699 104.781 37.0215 104.937 34.1238L104.937 34.1245Z" fill="#820AD1"/>
</svg>
