<svg width="218" height="44" viewBox="0 0 218 44" fill="none" xmlns="http://www.w3.org/2000/svg">
<path d="M72.4725 10.0986H71.3041C70.1634 10.0986 69.6627 10.4315 68.9115 11.68L62.6798 21.7506L60.0925 11.7909C59.7864 10.598 59.4526 10.1264 58.145 10.1264H57.1713C55.8916 10.1264 55.0848 10.8754 54.8344 12.2071L51.9411 28.4088C51.7186 29.6295 52.275 30.2676 53.3321 30.2676H53.7773C54.8901 30.2676 55.3908 29.7128 55.5856 28.5198L57.9225 15.4252L60.1759 24.1919C60.3707 25.0797 60.5376 25.6623 62.2346 25.6623C63.6535 25.6623 63.9873 25.1629 64.4881 24.3584L69.9965 15.342L67.6596 28.4366C67.437 29.685 67.9934 30.2954 69.0228 30.2954H69.4957C70.6085 30.2954 71.1093 29.7128 71.3041 28.5476L74.1696 12.2348C74.4199 10.9309 73.7801 10.0986 72.4725 10.0986Z" fill="black"/>
<path d="M89.8602 21.6958C89.7211 17.7563 87.0504 14.8711 82.5435 14.8711C77.3967 14.8711 74.253 19.0602 74.3921 23.6378C74.5591 27.827 77.4524 30.518 81.7089 30.518C86.9947 30.4903 89.9993 26.2734 89.8602 21.6958ZM81.7367 27.6328C79.3163 27.6328 77.7862 25.885 77.7027 23.4991C77.5915 20.4196 79.6224 17.7009 82.5157 17.7009C84.7413 17.7009 86.494 19.4486 86.5774 21.8623C86.6609 25.1082 84.63 27.6328 81.7367 27.6328Z" fill="black"/>
<path d="M101.35 14.8711C99.2077 14.8711 97.5107 15.9253 96.37 17.7009C96.4813 15.6756 95.3685 15.093 94.2279 15.093C93.6993 15.093 93.282 15.2317 93.2541 15.2872L90.9172 28.465C90.6947 29.8244 91.4458 30.2128 92.4474 30.2128H92.8647C93.9497 30.2128 94.3948 29.7689 94.6173 28.465L96.0084 20.5584C97.0099 18.8106 98.1227 17.9783 99.8476 17.9783C101.572 17.9783 102.602 19.0048 102.63 20.6971C102.657 21.141 102.546 21.6958 102.463 22.3616L101.378 28.465C101.155 29.8244 101.934 30.2128 102.908 30.2128H103.325C104.41 30.2128 104.855 29.7689 105.078 28.465L106.274 21.7236C106.413 20.9745 106.497 20.3087 106.469 19.6983C106.385 16.8686 104.494 14.8711 101.35 14.8711Z" fill="black"/>
<path d="M167.172 14.8711C165.419 14.8711 164.112 15.8698 163.222 17.7009C163.361 15.6756 162.248 15.093 161.107 15.093C160.551 15.093 160.161 15.2317 160.134 15.2872L157.769 28.465C157.546 29.8244 158.437 30.2128 159.438 30.2128H159.855C160.801 30.2128 161.246 29.7689 161.497 28.465L162.276 24.0539C162.86 20.6138 164.14 18.228 166.198 18.228C167.2 18.228 167.84 18.6441 168.257 19.1157C168.313 19.1712 169.871 18.5609 169.815 16.7299C169.732 15.5924 168.591 14.8711 167.172 14.8711Z" fill="black"/>
<path d="M185.144 15.0925C183.698 15.0925 182.891 15.786 182.418 17.617C181.5 15.897 179.608 14.8428 177.41 14.8428C172.736 14.8428 169.481 19.0042 169.481 23.7205C169.481 27.6044 171.874 30.4897 175.658 30.4897C177.967 30.4897 179.747 29.5464 180.888 27.6322C180.721 29.6297 181.11 30.24 182.557 30.24C183.837 30.24 184.254 29.7684 184.393 28.3535C184.56 25.7457 185.45 21.501 186.48 15.5363C186.48 15.4254 185.895 15.0925 185.144 15.0925ZM176.464 27.6322C174.183 27.6322 172.876 26.1896 172.876 23.6372C172.876 20.641 174.628 17.6448 177.883 17.6448C180.526 17.6448 181.639 19.5868 181.639 21.723C181.639 24.414 179.803 27.6322 176.464 27.6322Z" fill="black"/>
<path d="M207.345 14.8711C204.785 14.8711 203.088 16.175 201.892 18.0893C201.308 16.064 199.555 14.8711 197.329 14.8711C195.382 14.8711 193.685 15.7866 192.516 17.5344C192.572 15.6756 191.487 15.1208 190.374 15.1208C189.818 15.1208 189.428 15.2595 189.401 15.315L187.064 28.4928C186.841 29.8522 187.592 30.2406 188.594 30.2406H189.011C189.957 30.2406 190.541 29.8522 190.764 28.4928L192.21 20.3087C193.268 18.6718 194.269 17.9783 195.827 17.9783C197.357 17.9783 198.303 19.1157 198.303 20.8358C198.303 21.1132 198.275 21.4184 198.22 21.7513L197.051 28.4928C196.829 29.8522 197.608 30.2406 198.581 30.2406H198.971C199.917 30.2406 200.529 29.8244 200.751 28.4928L202.198 20.3087C203.255 18.6718 204.257 17.9783 205.815 17.9783C207.289 17.9783 208.374 18.866 208.374 20.6971C208.374 21.141 208.291 21.6958 208.179 22.3616L207.094 28.465C206.872 29.8244 207.623 30.2128 208.624 30.2128H209.042C210.127 30.2128 210.572 29.769 210.794 28.465L211.991 21.7236C212.13 20.9745 212.185 20.3087 212.185 19.6983C212.213 16.7299 210.21 14.8711 207.345 14.8711Z" fill="black"/>
<path d="M123.356 21.4727C123.356 19.4198 122.939 18.0604 122.021 16.8674C121.019 15.5912 119.155 14.8145 116.985 14.8145C110.419 14.8145 108.055 19.6417 108.055 23.8308C108.055 27.8258 110.948 30.4891 115.399 30.4891C119.851 30.4891 122.354 28.5194 122.354 26.938C122.354 25.8838 121.603 25.5232 120.741 25.4399C119.572 26.938 117.959 27.6593 115.761 27.6593C113.814 27.6593 111.504 26.9103 111.337 23.4424H121.436C122.521 23.4702 123.356 22.8599 123.356 21.4727ZM120.101 21.0011H111.671C112.478 18.8649 114.342 17.5332 116.707 17.5332C117.903 17.5332 118.821 17.8662 119.433 18.532C119.962 19.1423 120.157 19.9746 120.101 21.0011Z" fill="black"/>
<path d="M154.709 19.448H148.699C147.976 19.448 147.642 19.6145 147.42 19.8364C147.058 20.2248 146.863 21.1126 146.863 21.501C146.891 22.1113 147.42 22.472 148.393 22.472H152.65C152.066 25.4405 150.174 27.4934 146.919 27.4934C143.497 27.4934 141.216 25.3295 141.077 21.6397C140.91 17.0067 143.998 13.1782 148.365 13.1782C150.925 13.1782 152.928 14.5376 153.735 16.3408C153.846 16.4795 156.211 16.4795 156.127 14.4543C156.1 13.733 155.682 12.873 154.903 12.1517C153.651 10.9033 151.287 9.82129 148.143 9.82129C143.747 9.82129 140.27 12.2349 138.461 15.7305C138.461 15.7028 138.434 15.7028 138.434 15.7028C138.072 15.2311 137.488 15.0092 136.904 15.0092C135.93 15.0092 135.29 15.3144 134.344 16.9789L129.67 25.163L127.918 17.0067C127.584 15.4808 127.027 15.0092 126.054 15.0092C124.913 15.0092 123.995 15.8415 124.023 16.0357L127.361 29.2135L123.911 34.873C123.55 35.4833 123.522 36.2879 124.829 36.2879H125.553C126.916 36.2879 127.361 35.4556 128.029 34.3181L137.432 18.4493C137.154 19.559 137.015 20.7519 137.07 21.9726C137.237 27.2992 140.854 30.5174 146.14 30.5174C148.644 30.5174 150.647 29.5741 151.76 28.1315C151.676 29.6851 152.511 30.2954 153.624 30.2954C154.236 30.2954 154.681 30.1012 154.681 29.9903L156.211 21.4455C156.461 20.1138 155.96 19.448 154.709 19.448Z" fill="black"/>
<path d="M216.162 28.6033C216.274 28.7975 216.357 28.8807 216.496 28.8807C216.496 28.8807 216.524 29.1027 216.246 29.1027C216.079 29.1027 215.967 29.0194 215.801 28.7143L215.495 28.1594H215.216L215.077 28.9362C215.049 29.0472 214.994 29.1027 214.882 29.1027H214.827C214.716 29.1027 214.66 29.0472 214.688 28.9085L215.077 26.911C215.105 26.7723 215.189 26.7168 215.328 26.7168H215.912C216.44 26.7168 216.746 26.9387 216.746 27.3271C216.746 27.7988 216.44 28.1039 215.912 28.1317L216.162 28.6033ZM215.801 27.8543C216.162 27.8543 216.357 27.6601 216.329 27.3549C216.329 27.1329 216.162 26.9942 215.856 26.9942H215.439L215.272 27.8265H215.801V27.8543Z" fill="black"/>
<path d="M215.718 26.079C216.803 26.079 217.665 26.9668 217.665 28.021C217.665 29.103 216.775 29.963 215.718 29.963C214.633 29.963 213.77 29.0752 213.77 28.021C213.743 26.9668 214.633 26.079 215.718 26.079ZM215.718 25.7461C214.466 25.7461 213.437 26.7726 213.437 28.021C213.437 29.2694 214.466 30.2959 215.718 30.2959C216.97 30.2959 217.999 29.2694 217.999 28.021C217.999 26.7726 216.97 25.7461 215.718 25.7461Z" fill="black"/>
<path d="M22.0615 44C34.2458 44 44.123 34.1503 44.123 22C44.123 9.84973 34.2458 0 22.0615 0C9.87728 0 0 9.84973 0 22C0 34.1503 9.87728 44 22.0615 44Z" fill="white"/>
<path d="M44.123 22C44.123 34.1513 34.2468 44 22.0615 44C9.87622 44 0 34.1513 0 22C0 18.6431 0.751149 15.4805 2.08652 12.6507C1.19627 14.8979 0.778969 17.145 0.778969 19.2257C0.778969 29.1854 8.84686 30.628 12.2688 30.6003C17.499 30.5448 23.5916 27.9924 28.7384 23.2762C28.7384 23.2762 28.0707 26.9937 27.876 28.1311C27.6812 29.2409 28.4046 30.2119 29.5174 30.2119H29.9625C31.1031 30.2119 31.9377 29.2686 32.1325 28.1311L33.9964 17.7554C34.219 16.5902 33.4679 15.6747 32.2994 15.6747H21.8946C20.7261 15.6747 19.669 16.285 19.4742 17.4502C19.4742 17.5057 19.3908 17.8386 19.3908 17.9218C19.2238 19.0315 20.0028 19.8638 21.1156 19.8638H26.5406C26.4571 19.947 26.3737 20.0303 26.2902 20.1135C22.5345 23.6368 17.8885 25.5788 14.0493 25.5788C10.2379 25.5788 5.95355 23.1652 5.95355 17.7554C5.95355 6.51955 16.5253 0 22.0615 0C34.219 0 44.123 9.84867 44.123 22Z" fill="#DF2127"/>
<path d="M44.123 22C44.123 34.1513 34.2468 44 22.0615 44C9.87622 44 0 34.1513 0 22C0 18.6431 0.751149 15.4805 2.08652 12.6507C1.19627 14.8979 0.778969 17.145 0.778969 19.2257C0.778969 29.1854 8.84686 30.628 12.2688 30.6003C17.499 30.5448 23.5916 27.9924 28.7384 23.2762C28.7384 23.2762 28.0707 26.9937 27.876 28.1311C27.6812 29.2409 28.4046 30.2119 29.5174 30.2119H29.9625C31.1031 30.2119 31.9377 29.2686 32.1325 28.1311L33.9964 17.7554C34.219 16.5902 33.4679 15.6747 32.2994 15.6747H21.8946C20.7261 15.6747 19.669 16.285 19.4742 17.4502C19.4742 17.5057 19.3908 17.8386 19.3908 17.9218C19.2238 19.0315 20.0028 19.8638 21.1156 19.8638H26.5406C26.4571 19.947 26.3737 20.0303 26.2902 20.1135C22.5345 23.6368 17.8885 25.5788 14.0493 25.5788C10.2379 25.5788 5.95355 23.1652 5.95355 17.7554C5.95355 6.51955 16.5253 0 22.0615 0C34.219 0 44.123 9.84867 44.123 22Z" fill="#DF2127"/>
</svg>
