<svg width="118" height="24" viewBox="0 0 118 24" fill="none" xmlns="http://www.w3.org/2000/svg">
<path d="M7.20383 10.2595L11.7787 5.68489L16.3559 10.262L19.0179 7.6L11.7787 0.360596L4.54187 7.59758L7.20383 10.2595Z" fill="black"/>
<path d="M5.32402 12.1387L2.66211 9.47681L6.41854e-05 12.1389L2.66198 14.8008L5.32402 12.1387Z" fill="black"/>
<path d="M7.20383 14.0188L11.7787 18.5935L16.3557 14.0166L19.0192 16.6771L19.0179 16.6786L11.7787 23.9178L4.54169 16.681L4.53796 16.6773L7.20383 14.0188Z" fill="black"/>
<path d="M20.8954 14.8022L23.5575 12.1401L20.8956 9.47822L18.2335 12.1403L20.8954 14.8022Z" fill="black"/>
<path d="M14.4788 12.1377H14.4799L11.7787 9.43652L9.78246 11.4328H9.78227L9.55304 11.6622L9.07989 12.1353L9.07617 12.139L9.07989 12.143L11.7787 14.8418L14.4799 12.1405L14.4812 12.139L14.4788 12.1377Z" fill="black"/>
<path d="M27.7074 6.06885H33.497C34.934 6.06885 36.0206 6.43762 36.757 7.17516C37.3269 7.74636 37.6117 8.45432 37.6117 9.29885V9.33457C37.6117 9.69143 37.5676 10.0068 37.4789 10.2803C37.3903 10.5542 37.272 10.8007 37.1241 11.0208C36.9765 11.2411 36.805 11.4344 36.61 11.6008C36.4148 11.7675 36.2051 11.9104 35.9806 12.0291C36.7028 12.303 37.2714 12.6745 37.686 13.1445C38.1003 13.6147 38.3078 14.2661 38.3078 15.0987V15.1342C38.3078 15.7055 38.198 16.205 37.9783 16.6335C37.7585 17.0616 37.4437 17.4187 37.0338 17.7043C36.6239 17.9899 36.1311 18.2039 35.555 18.3468C34.979 18.4895 34.3406 18.5607 33.6401 18.5607H27.7074V6.06885ZM32.9182 11.1191C33.5251 11.1191 34.007 11.0153 34.3637 10.8069C34.7206 10.5987 34.899 10.2625 34.899 9.79861V9.76288C34.899 9.34667 34.7442 9.0285 34.435 8.80821C34.1255 8.5881 33.6794 8.47795 33.0966 8.47795H30.3841V11.1191H32.9182ZM33.65 16.1518C34.2567 16.1518 34.7323 16.042 35.0776 15.8217C35.4226 15.6016 35.5952 15.2595 35.5952 14.7954V14.7599C35.5952 14.3435 35.4345 14.0134 35.1133 13.7693C34.792 13.5258 34.2746 13.4037 33.5607 13.4037H30.3841V16.152L33.65 16.1518Z" fill="black"/>
<path d="M41.7559 6.06885H44.5043V18.5611H41.7559V6.06885Z" fill="black"/>
<path d="M48.6671 6.06885H51.2009L57.0545 13.7606V6.06885H59.7671V18.5611H57.4294L51.3795 10.6197V18.5611H48.6671V6.06885Z" fill="black"/>
<path d="M68.0876 5.97974H70.6216L75.9757 18.5611H73.1023L71.9601 15.7594H66.6777L65.5356 18.5611H62.7334L68.0876 5.97974ZM70.9786 13.3321L69.3188 9.28118L67.6595 13.3321H70.9786Z" fill="black"/>
<path d="M78.9424 6.06885H81.4767L87.33 13.7606V6.06885H90.0425V18.5611H87.7049L81.6549 10.6197V18.5611H78.9424V6.06885Z" fill="black"/>
<path d="M99.9335 18.7749C99.017 18.7749 98.1667 18.6082 97.3813 18.2753C96.596 17.9424 95.918 17.4871 95.347 16.91C94.7758 16.333 94.3294 15.6519 94.0086 14.8667C93.6873 14.0813 93.5267 13.2426 93.5267 12.3502V12.3147C93.5267 11.4223 93.6873 10.5867 94.0086 9.80734C94.3296 9.02812 94.7758 8.34397 95.347 7.75509C95.9178 7.16621 96.6021 6.702 97.399 6.36299C98.1959 6.02399 99.0769 5.85449 100.041 5.85449C100.623 5.85449 101.155 5.90231 101.637 5.9972C102.119 6.09265 102.556 6.22326 102.949 6.38979C103.342 6.5565 103.704 6.75874 104.038 6.99653C104.37 7.23468 104.68 7.49629 104.966 7.78189L103.217 9.7984C102.729 9.35837 102.232 9.01305 101.727 8.76335C101.221 8.51366 100.653 8.38863 100.022 8.38863C99.4989 8.38863 99.014 8.48985 98.5682 8.69209C98.122 8.89434 97.7382 9.1738 97.4169 9.53066C97.0959 9.88753 96.846 10.3011 96.6672 10.7709C96.4892 11.2411 96.4001 11.7437 96.4001 12.279V12.3145C96.4001 12.8498 96.4892 13.3557 96.6672 13.8313C96.846 14.3074 97.0924 14.7236 97.4081 15.0805C97.7231 15.4373 98.104 15.7201 98.55 15.9283C98.9965 16.1367 99.4872 16.2405 100.022 16.2405C100.737 16.2405 101.34 16.1097 101.834 15.848C102.327 15.5865 102.818 15.2295 103.306 14.7772L105.055 16.544C104.734 16.8892 104.4 17.1986 104.056 17.4719C103.711 17.7458 103.333 17.9806 102.922 18.1771C102.512 18.3732 102.062 18.5222 101.575 18.623C101.087 18.7241 100.54 18.7749 99.9335 18.7749Z" fill="black"/>
<path d="M108.289 6.06885H117.694V8.51386H111.002V11.048H116.891V13.4928H111.002V16.1163H117.784V18.5611H108.289V6.06885Z" fill="black"/>
</svg>
