<svg width="213" height="40" viewBox="0 0 213 40" fill="none" xmlns="http://www.w3.org/2000/svg">
<path d="M42.989 11.4672C35.2512 11.4672 29.2052 17.4879 29.2052 25.5479C29.2052 33.6079 35.0985 39.5771 42.989 39.5771C50.8796 39.5771 56.8753 33.5049 56.8753 25.4964C56.8753 17.5394 50.982 11.4672 42.989 11.4672ZM43.0412 33.7684C38.6348 33.7684 35.4059 30.2606 35.4059 25.5499C35.4059 20.7856 38.5826 17.2798 42.989 17.2798C47.4476 17.2798 50.6746 20.8391 50.6746 25.5499C50.6746 30.2606 47.4476 33.7684 43.0412 33.7684ZM58.5651 17.5929H62.4089V39.0559H68.5574V11.9904H58.5651V17.5929ZM13.7316 17.2778C16.9605 17.2778 19.5224 19.3191 20.4949 22.3552H27.003C25.8236 15.8648 20.5974 11.4672 13.7838 11.4672C6.046 11.4672 0 17.4879 0 25.5499C0 33.6119 5.89325 39.5791 13.7838 39.5791C20.4446 39.5791 25.7733 35.1815 26.9527 28.6375H20.4949C19.5726 31.6737 17.0108 33.7684 13.7819 33.7684C9.32325 33.7684 6.19874 30.2606 6.19874 25.5499C6.20067 20.7856 9.27491 17.2778 13.7316 17.2778ZM175.39 22.9319L170.881 22.2522C168.729 21.939 167.192 21.2058 167.192 19.4776C167.192 17.5929 169.191 16.6516 171.906 16.6516C174.878 16.6516 176.774 17.9596 177.184 20.1059H183.128C182.461 14.6618 178.362 11.4691 172.06 11.4691C165.552 11.4691 161.248 14.8719 161.248 19.6877C161.248 24.2934 164.067 26.9649 169.754 27.8012L174.263 28.481C176.467 28.7941 177.697 29.6859 177.697 31.3605C177.697 33.5068 175.545 34.3967 172.573 34.3967C168.934 34.3967 166.885 32.8786 166.577 30.5757H160.531C161.096 35.8632 165.142 39.5791 172.521 39.5791C179.234 39.5791 183.69 36.4379 183.69 31.0454C183.69 26.2296 180.463 23.7167 175.39 22.9319ZM65.4831 0.8407C63.2287 0.8407 61.5369 2.51533 61.5369 4.81819C61.5369 7.12105 63.2268 8.79568 65.4831 8.79568C67.7376 8.79568 69.4294 7.12105 69.4294 4.81819C69.4294 2.51533 67.7376 0.8407 65.4831 0.8407ZM155.715 21.2573C155.715 15.3951 152.231 11.4691 144.853 11.4691C137.884 11.4691 133.99 15.082 133.221 20.631H139.319C139.626 18.4847 141.266 16.7051 144.75 16.7051C147.876 16.7051 149.414 18.1181 149.414 19.8462C149.414 22.0976 146.595 22.6723 143.11 23.0389C138.397 23.5621 132.556 25.2368 132.556 31.5191C132.556 36.3884 136.092 39.5276 141.728 39.5276C146.134 39.5276 148.901 37.6429 150.286 34.6583C150.491 37.3278 152.438 39.0559 155.154 39.0559H158.741V33.4553H155.717V21.2573H155.715ZM149.669 28.0628C149.669 31.6757 146.595 34.3451 142.853 34.3451C140.547 34.3451 138.6 33.3503 138.6 31.2575C138.6 28.588 141.726 27.8547 144.595 27.5416C147.362 27.28 148.899 26.6518 149.669 25.4468V28.0628ZM117.03 11.4672C113.596 11.4672 110.727 12.9337 108.677 15.3931V0.579102H102.529V39.0559H108.575V35.4966C110.624 38.061 113.546 39.5791 117.03 39.5791C124.408 39.5791 129.994 33.6119 129.994 25.5499C129.994 17.4879 124.305 11.4672 117.03 11.4672ZM116.107 33.7684C111.701 33.7684 108.472 30.2606 108.472 25.5499C108.472 20.8391 111.751 17.2798 116.158 17.2798C120.616 17.2798 123.741 20.7876 123.741 25.5499C123.741 30.2606 120.514 33.7684 116.107 33.7684ZM87.8226 11.4672C83.8261 11.4672 81.212 13.1418 79.6749 15.4982V11.9904H73.5767V39.0539H79.7252V24.3449C79.7252 20.2089 82.287 17.2778 86.0786 17.2778C89.6149 17.2778 91.8171 19.8423 91.8171 23.5601V39.0559H97.9656V23.0905C97.9675 16.2829 94.5356 11.4672 87.8226 11.4672ZM213 24.6601C213 16.9132 207.466 11.4691 200.036 11.4691C192.145 11.4691 186.355 17.5414 186.355 25.5499C186.355 33.9785 192.555 39.5791 200.138 39.5791C206.544 39.5791 211.565 35.7047 212.845 30.2091H206.44C205.517 32.617 203.263 33.9785 200.239 33.9785C196.293 33.9785 193.321 31.4656 192.656 27.0679H212.998V24.6601H213ZM193.016 22.5653C193.99 18.7959 196.757 16.9647 199.934 16.9647C203.418 16.9647 206.082 19.006 206.697 22.5653H193.016Z" fill="#0052FF"/>
</svg>
