<svg width="113" height="18" viewBox="0 0 113 18" fill="none" xmlns="http://www.w3.org/2000/svg">
<path fill-rule="evenodd" clip-rule="evenodd" d="M15.1836 5.10194H0.569137C0.499435 5.10191 0.431255 5.08159 0.372947 5.04346C0.31464 5.00535 0.268737 4.95109 0.240857 4.88733C0.212976 4.82357 0.204329 4.7531 0.215976 4.68451C0.227622 4.61593 0.259053 4.5522 0.306425 4.50117L3.38589 1.20215C3.45258 1.13049 3.53333 1.07331 3.62313 1.03417C3.71293 0.995038 3.80985 0.974788 3.90784 0.974685H18.5223C18.5926 0.973235 18.6618 0.992582 18.7211 1.03029C18.7805 1.068 18.8274 1.12239 18.8558 1.18661C18.8843 1.25083 18.893 1.32201 18.881 1.3912C18.869 1.46039 18.8368 1.5245 18.7885 1.57546L15.7055 4.87448C15.6388 4.94614 15.5581 5.00334 15.4683 5.04246C15.3785 5.08159 15.2816 5.10186 15.1836 5.10194ZM15.7055 7.47214C15.6386 7.40081 15.5578 7.34386 15.468 7.30474C15.3783 7.26564 15.2815 7.2452 15.1836 7.2447H0.569137C0.499435 7.24473 0.431255 7.26505 0.372947 7.30318C0.31464 7.34129 0.268737 7.39555 0.240857 7.45931C0.212976 7.52307 0.204329 7.59355 0.215976 7.66213C0.227622 7.73072 0.259053 7.79444 0.306425 7.84547L3.38589 11.1462C3.45282 11.2176 3.53364 11.2745 3.62338 11.3136C3.71312 11.3527 3.80992 11.3732 3.90784 11.3737H18.5223C18.5919 11.3733 18.6597 11.3527 18.7178 11.3145C18.7759 11.2763 18.8215 11.222 18.8492 11.1583C18.8768 11.0946 18.8854 11.0242 18.8735 10.9558C18.8619 10.8874 18.8306 10.8238 18.7832 10.7729L15.7055 7.47214ZM18.7885 14.1169L15.7055 17.4159C15.6388 17.4875 15.5581 17.5447 15.4683 17.5839C15.3785 17.623 15.2816 17.6433 15.1836 17.6433H0.569137C0.499435 17.6433 0.431255 17.623 0.372947 17.5849C0.31464 17.5468 0.268737 17.4925 0.240857 17.4287C0.212976 17.365 0.204329 17.2945 0.215976 17.2259C0.227622 17.1573 0.259053 17.0936 0.306425 17.0426L3.38589 13.7435C3.45258 13.6719 3.53333 13.6147 3.62313 13.5756C3.71293 13.5364 3.80985 13.5162 3.90784 13.5161H18.5223C18.5926 13.5146 18.6618 13.534 18.7211 13.5717C18.7805 13.6094 18.8274 13.6638 18.8558 13.728C18.8843 13.7922 18.893 13.8634 18.881 13.9326C18.869 14.0018 18.8368 14.0659 18.7885 14.1169Z" fill="url(#paint0_linear_398_6938)"/>
<path d="M36.6873 8.10461H28.8971V5.54256H38.712V2.98051H28.8711C28.5348 2.97869 28.2016 3.04302 27.8903 3.16982C27.579 3.29664 27.2955 3.48345 27.0567 3.71959C26.8176 3.95573 26.6274 4.23659 26.4971 4.54609C26.3667 4.85562 26.2986 5.18775 26.2969 5.52352V8.12019C26.2983 8.45625 26.3659 8.78877 26.4961 9.09867C26.6262 9.40859 26.8162 9.68985 27.0553 9.92635C27.2945 10.1629 27.5779 10.35 27.8894 10.477C28.2009 10.6041 28.5346 10.6685 28.8711 10.6667H36.6717V13.2287H26.4824V15.7908H36.6873C37.0236 15.7926 37.3568 15.7283 37.6681 15.6015C37.9795 15.4746 38.2629 15.2878 38.5018 15.0517C38.7408 14.8155 38.931 14.5347 39.0613 14.2252C39.1917 13.9157 39.2598 13.5835 39.2616 13.2478V10.6511C39.2602 10.315 39.1926 9.98253 39.0624 9.67261C38.9322 9.36268 38.7422 9.08143 38.5032 8.84492C38.2639 8.60842 37.9805 8.4213 37.669 8.29427C37.3575 8.16724 37.0238 8.10279 36.6873 8.10461Z" fill="black"/>
<path fill-rule="evenodd" clip-rule="evenodd" d="M44.001 2.98055H51.8144C52.1504 2.97874 52.4833 3.04306 52.7944 3.16986C53.1055 3.29668 53.3887 3.48348 53.6274 3.71962C53.8662 3.95576 54.0562 4.23661 54.1865 4.54611C54.3168 4.85563 54.3848 5.18775 54.3866 5.52351V13.2476C54.3848 13.5834 54.3168 13.9155 54.1865 14.225C54.0562 14.5345 53.8662 14.8154 53.6274 15.0515C53.3887 15.2876 53.1055 15.4744 52.7944 15.6013C52.4833 15.7281 52.1504 15.7924 51.8144 15.7906H44.001C43.6644 15.7933 43.3306 15.7296 43.0187 15.6032C42.7069 15.4768 42.423 15.2902 42.1835 15.054C41.9438 14.8177 41.7532 14.5366 41.6226 14.2266C41.4919 13.9167 41.4236 13.584 41.4219 13.2476V5.52351C41.4236 5.18716 41.4919 4.85447 41.6226 4.5445C41.7532 4.23453 41.9438 3.95339 42.1835 3.71716C42.423 3.48092 42.7069 3.29428 43.0187 3.16787C43.3306 3.04147 43.6644 2.97782 44.001 2.98055ZM44.0189 13.2286H51.7943L51.7908 5.54255H44.0189V13.2286Z" fill="black"/>
<path fill-rule="evenodd" clip-rule="evenodd" d="M71.4761 2.98066H79.1137C79.4519 2.97656 79.7874 3.03919 80.1012 3.16497C80.4151 3.29075 80.7008 3.47719 80.9419 3.71355C81.1832 3.94994 81.375 4.23155 81.5067 4.5422C81.6383 4.85286 81.707 5.18641 81.7088 5.52365V15.7908H79.1051V11.5825H71.5022V15.7908H68.8984V5.52365C68.9002 5.18788 68.9684 4.85575 69.0989 4.54623C69.2295 4.23673 69.4199 3.95587 69.6592 3.71973C69.8984 3.48359 70.1822 3.29679 70.494 3.16997C70.8058 3.04317 71.1394 2.97884 71.4761 2.98066ZM71.4906 9.02033H79.0935V5.54255H71.4906V9.02033Z" fill="black"/>
<path fill-rule="evenodd" clip-rule="evenodd" d="M102.034 2.98051H109.682C110.019 2.97869 110.354 3.04302 110.666 3.16982C110.978 3.29664 111.262 3.48345 111.502 3.71959C111.741 3.95573 111.932 4.23659 112.063 4.54609C112.193 4.85562 112.262 5.18775 112.263 5.52352V15.7908H109.656V11.5824H102.06V15.7908H99.4531V5.52352C99.4549 5.18775 99.5232 4.85562 99.6539 4.54609C99.7846 4.23659 99.9753 3.95573 100.215 3.71959C100.455 3.48345 100.739 3.29664 101.051 3.16982C101.363 3.04302 101.697 2.97869 102.034 2.98051ZM102.043 9.02036H109.656V5.54255H102.043V9.02036Z" fill="black"/>
<path d="M94.5332 13.2287H93.494L89.7786 4.05379C89.6513 3.73725 89.4322 3.46597 89.1496 3.27475C88.8669 3.08351 88.5334 2.98104 88.1921 2.98049H85.8866C85.6625 2.97935 85.4405 3.02233 85.2331 3.10697C85.0256 3.19162 84.837 3.31626 84.6776 3.47379C84.5185 3.63134 84.3919 3.81867 84.3051 4.02512C84.2183 4.23156 84.1731 4.45307 84.1719 4.67699V15.7908H86.77V5.54255H87.8093L91.5229 14.7175C91.6522 15.0334 91.8731 15.3036 92.157 15.4936C92.4407 15.6835 92.7748 15.7846 93.1164 15.7839H95.4218C95.6459 15.785 95.868 15.7421 96.0753 15.6574C96.2828 15.5728 96.4714 15.4481 96.6308 15.2906C96.79 15.1331 96.9166 14.9457 97.0034 14.7393C97.0901 14.5328 97.1353 14.3113 97.1366 14.0874V2.98049H94.5332V13.2287Z" fill="black"/>
<path d="M59.2927 2.98047H56.7031V13.2477C56.7049 13.5842 56.773 13.9171 56.9034 14.2271C57.0337 14.5372 57.2238 14.8184 57.4627 15.0547C57.7016 15.291 57.9849 15.4776 58.2959 15.6039C58.607 15.7302 58.9398 15.7937 59.2754 15.7907H67.044V13.2287H59.2927V2.98047Z" fill="black"/>
<defs>
<linearGradient id="paint0_linear_398_6938" x1="11.4456" y1="24.8801" x2="24.6945" y2="6.16872" gradientUnits="userSpaceOnUse">
<stop offset="0.08" stop-color="#9945FF"/>
<stop offset="0.3" stop-color="#8752F3"/>
<stop offset="0.5" stop-color="#5497D5"/>
<stop offset="0.6" stop-color="#43B4CA"/>
<stop offset="0.72" stop-color="#28E0B9"/>
<stop offset="0.97" stop-color="#19FB9B"/>
</linearGradient>
</defs>
</svg>
