<svg width="40" height="40" viewBox="0 0 40 40" fill="none" xmlns="http://www.w3.org/2000/svg">
<path fill-rule="evenodd" clip-rule="evenodd" d="M20 6.66659C16.4638 6.66659 13.0724 8.07134 10.5719 10.5718C8.07143 13.0723 6.66668 16.4637 6.66668 19.9999C6.66668 21.7509 7.01155 23.4847 7.68162 25.1024C8.35168 26.72 9.3338 28.1899 10.5719 29.428C11.81 30.6661 13.2799 31.6483 14.8976 32.3183C16.5152 32.9884 18.2491 33.3333 20 33.3333C21.751 33.3333 23.4848 32.9884 25.1025 32.3183C26.7201 31.6483 28.19 30.6661 29.4281 29.428C30.6662 28.1899 31.6483 26.72 32.3184 25.1024C32.9885 23.4847 33.3333 21.7509 33.3333 19.9999C33.3333 16.4637 31.9286 13.0723 29.4281 10.5718C26.9276 8.07134 23.5362 6.66659 20 6.66659ZM8.2149 8.21481C11.3405 5.0892 15.5797 3.33325 20 3.33325C24.4203 3.33325 28.6595 5.0892 31.7851 8.21481C34.9107 11.3404 36.6667 15.5796 36.6667 19.9999C36.6667 22.1886 36.2356 24.3559 35.398 26.378C34.5604 28.4001 33.3328 30.2374 31.7851 31.785C30.2375 33.3327 28.4002 34.5603 26.3781 35.3979C24.356 36.2355 22.1887 36.6666 20 36.6666C17.8113 36.6666 15.644 36.2355 13.622 35.3979C11.5999 34.5603 9.76254 33.3327 8.2149 31.785C6.66725 30.2374 5.4396 28.4001 4.60202 26.378C3.76444 24.3559 3.33334 22.1886 3.33334 19.9999C3.33334 15.5796 5.08929 11.3404 8.2149 8.21481ZM26.1785 15.4881C26.8294 16.1389 26.8294 17.1942 26.1785 17.8451L19.5119 24.5118C18.861 25.1626 17.8057 25.1626 17.1548 24.5118L13.8215 21.1784C13.1706 20.5276 13.1706 19.4723 13.8215 18.8214C14.4724 18.1705 15.5276 18.1705 16.1785 18.8214L18.3333 20.9762L23.8215 15.4881C24.4724 14.8372 25.5276 14.8372 26.1785 15.4881Z" fill="#0073C3"/>
</svg>
