<svg width="30" height="14" viewBox="0 0 30 14" fill="none" xmlns="http://www.w3.org/2000/svg">
<g clip-path="url(#clip0_5765_82759)">
<path fill-rule="evenodd" clip-rule="evenodd" d="M7.39961 12.8H14.1996L17.2996 1.19995H7.39961C4.19961 1.19995 1.59961 3.79995 1.59961 6.99995C1.59961 10.2 4.19961 12.8 7.39961 12.8Z" fill="white"/>
<path fill-rule="evenodd" clip-rule="evenodd" d="M22.6004 0H7.40039C3.50039 0 0.400391 3.1 0.400391 7C0.400391 10.9 3.50039 14 7.40039 14H22.6004C26.5004 14 29.6004 10.9 29.6004 7C29.6004 3.1 26.4004 0 22.6004 0ZM1.60039 7C1.60039 3.8 4.20039 1.2 7.40039 1.2H17.3004L14.2004 12.8H7.40039C4.20039 12.8 1.60039 10.2 1.60039 7Z" fill="#0066FF"/>
<path d="M24.6002 3.99998C24.8002 4.19998 24.8002 4.59998 24.6002 4.79998L22.5002 6.99998L24.7002 9.19998C24.9002 9.39998 24.9002 9.79998 24.7002 9.99998C24.5002 10.2 24.1002 10.2 23.9002 9.99998L21.7002 7.79998L19.5002 9.99998C19.3002 10.2 18.9002 10.2 18.7002 9.99998C18.5002 9.79998 18.5002 9.39998 18.7002 9.19998L20.8002 6.99998L18.6002 4.79998C18.4002 4.59998 18.4002 4.19998 18.6002 3.99998C18.8002 3.79998 19.2002 3.79998 19.4002 3.99998L21.6002 6.19998L23.8002 3.99998C24.0002 3.79998 24.4002 3.79998 24.6002 3.99998Z" fill="white"/>
<path d="M12.7 4.09995C12.9 4.29995 13 4.69995 12.8 4.89995L8.6 9.79995C8.5 9.89995 8.4 9.99995 8.3 9.99995C8.1 10.1 7.8 10.1 7.6 9.89995L5.4 7.69995C5.2 7.49995 5.2 7.09995 5.4 6.89995C5.6 6.69995 6 6.69995 6.2 6.89995L8 8.59995L11.8 4.09995C12 3.89995 12.4 3.89995 12.7 4.09995Z" fill="#0066FF"/>
</g>
<defs>
<clipPath id="clip0_5765_82759">
<rect width="30" height="14" fill="white"/>
</clipPath>
</defs>
</svg>
